<?xml version="1.0" encoding="UTF-8"?>
<svg id="_Слой_1" data-name="Слой_1" xmlns="http://www.w3.org/2000/svg" version="1.1" viewBox="0 0 50 50">
  <defs>
    <style>
      .st0 {
        fill: #fff;
      }
    </style>
  </defs>
  <path class="st0" d="M47.2,21.2l-5.9-1c-.3-1.2-.8-2.3-1.4-3.4l3.5-4.9c.3-.4.2-.9-.1-1.3l-3.9-3.9c-.3-.3-.9-.4-1.3-.1l-4.8,3.5c-1.1-.6-2.2-1.1-3.4-1.4l-1-5.9c0-.5-.5-.8-1-.8h-5.5c-.5,0-.9.4-1,.8l-1,5.9c-1.2.3-2.4.8-3.4,1.4l-4.8-3.4c-.4-.3-.9-.2-1.3.1l-3.9,3.9c-.3.3-.4.9-.1,1.3l3.4,4.9c-.6,1.1-1.1,2.3-1.4,3.5l-5.8,1c-.5,0-.8.5-.8,1v5.5c0,.5.3.9.8,1l5.8,1c.3,1.2.8,2.4,1.4,3.5l-3.4,4.8c-.3.4-.2.9.1,1.3l3.9,3.9c.3.3.9.4,1.3.1l4.9-3.4c1.1.6,2.2,1.1,3.4,1.4l1,5.9c0,.5.5.8,1,.8h5.5c.5,0,.9-.3,1-.8l1-5.9c1.2-.4,2.3-.8,3.4-1.4l4.9,3.4c.4.3.9.2,1.3-.1l3.9-3.9c.3-.3.4-.9.1-1.3l-3.5-4.9c.6-1.1,1.1-2.2,1.4-3.4l5.9-1c.5,0,.8-.5.8-1v-5.5c0-.5-.4-.9-.8-1ZM25,32c-3.9,0-7-3.1-7-7s3.1-7,7-7,7,3.1,7,7-3.1,7-7,7Z"/>
</svg>